<?xml version="1.0" encoding="utf-8"?>
<!-- Generator: Adobe Illustrator 15.0.0, SVG Export Plug-In  -->
<!DOCTYPE svg PUBLIC "-//W3C//DTD SVG 1.1//EN" "http://www.w3.org/Graphics/SVG/1.1/DTD/svg11.dtd" [
	<!ENTITY ns_flows "http://ns.adobe.com/Flows/1.0/">
]>
<svg version="1.1"
	 xmlns="http://www.w3.org/2000/svg" xmlns:xlink="http://www.w3.org/1999/xlink" xmlns:a="http://ns.adobe.com/AdobeSVGViewerExtensions/3.0/"
	 x="0px" y="0px" width="60px" height="60px" viewBox="-2.891 -8.901 60 60"
	 overflow="visible" enable-background="new -2.891 -8.901 60 60" xml:space="preserve">
<defs>
</defs>
<path id="rect4208_1_" fill="#FFFFFF" d="M4.75,0h44.609c2.589,0,4.75,2.163,4.75,4.751v31.597c0,2.589-2.161,4.75-4.75,4.75H4.75
	c-2.589,0-4.75-2.161-4.75-4.75V4.751C0,2.163,2.161,0,4.75,0z M7.612,4.977l19.445,20.127L46.59,4.977H7.612z M4.977,7.365v25.907
	l12.73-12.73L4.977,7.365z M49.133,7.461l-12.8,13.188l12.8,12.8V7.461z M20.177,23.098L7.152,36.122h39.627L33.857,23.2
	l-5.527,5.695c-0.683,0.705-1.808,0.723-2.513,0.039c-0.014-0.014-0.027-0.027-0.041-0.041L20.177,23.098z"/>
</svg>
